<?xml version="1.0" encoding="UTF-8"?>
<svg width="100mm" height="100mm" version="1.1" viewBox="0 0 100 100" xmlns="http://www.w3.org/2000/svg">
  <title>CSV:API</title>
  <g transform="translate(-55,-98.5)">
    <rect x="55" y="98.5" width="100" height="100" stroke-width="0"/>
    <path d="m84.402 163.94q4.5519 0.15173 8.497-0.53106 3.945-0.68279 6.8279-2.2001 2.9588-1.4414 4.6278-3.7174 1.669-2.276 1.669-5.3865 0-2.2001-0.68279-3.7174-0.60693-1.5932-1.5932-2.807-0.98626-1.2897-2.1242-2.4277-1.0621-1.2138-2.0484-2.5036-0.98626-1.3656-1.669-3.0346-0.60693-1.7449-0.60693-4.1726 0-2.3518 0.83452-4.5519 0.83452-2.276 2.4277-4.0209 1.5932-1.7449 3.8692-2.807 2.3518-1.0621 5.3106-1.0621 3.7174 0 6.6762 1.7449 2.9588 1.669 5.0071 4.6278 2.0484 2.8829 3.1105 6.6762 1.0621 3.7174 1.0621 7.8142 0 7.0555-2.5794 13.277-2.5794 6.221-7.7383 10.849-5.1589 4.6278-12.897 7.2831-7.6624 2.7312-17.98 2.7312z" fill="#ff0" stroke-width="4.8554"/>
  </g>
</svg>
